<mxfile host="app.diagrams.net" modified="2021-09-13T08:00:42.381Z" agent="5.0 (Windows NT 10.0; Win64; x64) AppleWebKit/537.36 (KHTML, like Gecko) Chrome/92.0.4515.131 Safari/537.36" etag="P3ZloVS3zLSZPNOSldLA" version="15.2.1" type="github">
  <diagram id="x7S5RqhdeE9kZd9EBZzt" name="公文模块对接">
    <mxGraphModel dx="981" dy="548" grid="1" gridSize="10" guides="1" tooltips="1" connect="1" arrows="1" fold="1" page="1" pageScale="1" pageWidth="827" pageHeight="1169" math="0" shadow="0">
      <root>
        <mxCell id="0" />
        <mxCell id="1" parent="0" />
        <mxCell id="Qi4VVK5ZeT5TlyYO9Yci-16" value="" style="rounded=0;whiteSpace=wrap;html=1;" vertex="1" parent="1">
          <mxGeometry x="80" y="60" width="600" height="380" as="geometry" />
        </mxCell>
        <mxCell id="Qi4VVK5ZeT5TlyYO9Yci-10" style="edgeStyle=orthogonalEdgeStyle;rounded=0;orthogonalLoop=1;jettySize=auto;html=1;exitX=0;exitY=0.5;exitDx=0;exitDy=0;entryX=1;entryY=0.75;entryDx=0;entryDy=0;" edge="1" parent="1" source="CzDoOxz1idOCnzo0Fpil-1" target="Qi4VVK5ZeT5TlyYO9Yci-7">
          <mxGeometry relative="1" as="geometry">
            <Array as="points">
              <mxPoint x="500" y="340" />
              <mxPoint x="500" y="320" />
            </Array>
          </mxGeometry>
        </mxCell>
        <mxCell id="CzDoOxz1idOCnzo0Fpil-1" value="待办文、会、事列表" style="rounded=0;whiteSpace=wrap;html=1;" parent="1" vertex="1">
          <mxGeometry x="520" y="320" width="120" height="40" as="geometry" />
        </mxCell>
        <mxCell id="Qi4VVK5ZeT5TlyYO9Yci-2" style="edgeStyle=orthogonalEdgeStyle;rounded=0;orthogonalLoop=1;jettySize=auto;html=1;exitX=0.5;exitY=1;exitDx=0;exitDy=0;entryX=0.5;entryY=0;entryDx=0;entryDy=0;" edge="1" parent="1" source="Qi4VVK5ZeT5TlyYO9Yci-1" target="CzDoOxz1idOCnzo0Fpil-1">
          <mxGeometry relative="1" as="geometry" />
        </mxCell>
        <mxCell id="Qi4VVK5ZeT5TlyYO9Yci-1" value="" style="shape=actor;whiteSpace=wrap;html=1;" vertex="1" parent="1">
          <mxGeometry x="560" y="200" width="40" height="40" as="geometry" />
        </mxCell>
        <mxCell id="Qi4VVK5ZeT5TlyYO9Yci-4" value="国土规划局用户" style="text;html=1;strokeColor=none;fillColor=none;align=center;verticalAlign=middle;whiteSpace=wrap;rounded=0;" vertex="1" parent="1">
          <mxGeometry x="530" y="180" width="100" height="20" as="geometry" />
        </mxCell>
        <mxCell id="Qi4VVK5ZeT5TlyYO9Yci-9" style="edgeStyle=orthogonalEdgeStyle;rounded=0;orthogonalLoop=1;jettySize=auto;html=1;exitX=1;exitY=0.25;exitDx=0;exitDy=0;entryX=0.1;entryY=0.5;entryDx=0;entryDy=0;entryPerimeter=0;" edge="1" parent="1" source="Qi4VVK5ZeT5TlyYO9Yci-7" target="Qi4VVK5ZeT5TlyYO9Yci-1">
          <mxGeometry relative="1" as="geometry" />
        </mxCell>
        <mxCell id="Qi4VVK5ZeT5TlyYO9Yci-13" style="edgeStyle=orthogonalEdgeStyle;rounded=0;orthogonalLoop=1;jettySize=auto;html=1;exitX=0;exitY=0.5;exitDx=0;exitDy=0;entryX=1;entryY=0.5;entryDx=0;entryDy=0;" edge="1" parent="1" source="Qi4VVK5ZeT5TlyYO9Yci-7" target="Qi4VVK5ZeT5TlyYO9Yci-12">
          <mxGeometry relative="1" as="geometry" />
        </mxCell>
        <mxCell id="Qi4VVK5ZeT5TlyYO9Yci-7" value="&lt;span&gt;【定时任务】&lt;br&gt;登录虚拟账户，并轮询该账户名下所有待办的文、会、事列表，并将待办列表同步到新区多规平台对应的模块中。&lt;/span&gt;" style="rounded=0;whiteSpace=wrap;html=1;" vertex="1" parent="1">
          <mxGeometry x="320" y="200" width="120" height="160" as="geometry" />
        </mxCell>
        <mxCell id="Qi4VVK5ZeT5TlyYO9Yci-12" value="中软OA平台待办箱&lt;br&gt;文、会、事待办列表" style="rounded=0;whiteSpace=wrap;html=1;" vertex="1" parent="1">
          <mxGeometry x="120" y="260" width="120" height="40" as="geometry" />
        </mxCell>
        <mxCell id="Qi4VVK5ZeT5TlyYO9Yci-14" value="" style="endArrow=none;dashed=1;html=1;strokeWidth=5;fillColor=#f5f5f5;strokeColor=#666666;" edge="1" parent="1">
          <mxGeometry width="50" height="50" relative="1" as="geometry">
            <mxPoint x="280" y="440" as="sourcePoint" />
            <mxPoint x="280" y="120" as="targetPoint" />
          </mxGeometry>
        </mxCell>
        <mxCell id="Qi4VVK5ZeT5TlyYO9Yci-15" value="" style="endArrow=none;dashed=1;html=1;strokeWidth=5;fillColor=#f5f5f5;strokeColor=#666666;" edge="1" parent="1">
          <mxGeometry width="50" height="50" relative="1" as="geometry">
            <mxPoint x="480" y="440" as="sourcePoint" />
            <mxPoint x="480" y="120" as="targetPoint" />
          </mxGeometry>
        </mxCell>
        <mxCell id="Qi4VVK5ZeT5TlyYO9Yci-17" value="新区多规合一平台" style="text;html=1;strokeColor=none;fillColor=none;align=center;verticalAlign=middle;whiteSpace=wrap;rounded=0;fontSize=18;fontStyle=1" vertex="1" parent="1">
          <mxGeometry x="105" y="140" width="150" height="20" as="geometry" />
        </mxCell>
        <mxCell id="Qi4VVK5ZeT5TlyYO9Yci-18" value="中软OA平台" style="text;html=1;strokeColor=none;fillColor=none;align=center;verticalAlign=middle;whiteSpace=wrap;rounded=0;fontSize=18;fontStyle=1" vertex="1" parent="1">
          <mxGeometry x="505" y="140" width="150" height="20" as="geometry" />
        </mxCell>
        <mxCell id="Qi4VVK5ZeT5TlyYO9Yci-20" value="使用定时轮询任务，同步待办事项列表" style="text;html=1;strokeColor=none;fillColor=none;align=center;verticalAlign=middle;whiteSpace=wrap;rounded=0;fontSize=20;fontStyle=1" vertex="1" parent="1">
          <mxGeometry x="80" y="60" width="600" height="60" as="geometry" />
        </mxCell>
        <mxCell id="Qi4VVK5ZeT5TlyYO9Yci-21" value="" style="rounded=0;whiteSpace=wrap;html=1;" vertex="1" parent="1">
          <mxGeometry x="80" y="520" width="600" height="400" as="geometry" />
        </mxCell>
        <mxCell id="Qi4VVK5ZeT5TlyYO9Yci-41" style="edgeStyle=orthogonalEdgeStyle;rounded=0;orthogonalLoop=1;jettySize=auto;html=1;exitX=0;exitY=0.75;exitDx=0;exitDy=0;entryX=1;entryY=0.75;entryDx=0;entryDy=0;fontSize=1;strokeWidth=1;" edge="1" parent="1" source="Qi4VVK5ZeT5TlyYO9Yci-23" target="Qi4VVK5ZeT5TlyYO9Yci-29">
          <mxGeometry relative="1" as="geometry">
            <Array as="points">
              <mxPoint x="500" y="805" />
              <mxPoint x="500" y="770" />
            </Array>
          </mxGeometry>
        </mxCell>
        <mxCell id="Qi4VVK5ZeT5TlyYO9Yci-23" value="待办文、会、事详情信息及附件信息" style="rounded=0;whiteSpace=wrap;html=1;" vertex="1" parent="1">
          <mxGeometry x="520" y="640" width="120" height="260" as="geometry" />
        </mxCell>
        <mxCell id="Qi4VVK5ZeT5TlyYO9Yci-44" style="edgeStyle=orthogonalEdgeStyle;rounded=0;orthogonalLoop=1;jettySize=auto;html=1;exitX=0;exitY=0.75;exitDx=0;exitDy=0;entryX=1;entryY=0.25;entryDx=0;entryDy=0;fontSize=1;strokeWidth=1;" edge="1" parent="1" source="Qi4VVK5ZeT5TlyYO9Yci-29" target="Qi4VVK5ZeT5TlyYO9Yci-42">
          <mxGeometry relative="1" as="geometry">
            <Array as="points">
              <mxPoint x="260" y="770" />
              <mxPoint x="260" y="840" />
            </Array>
          </mxGeometry>
        </mxCell>
        <mxCell id="Qi4VVK5ZeT5TlyYO9Yci-45" style="edgeStyle=orthogonalEdgeStyle;rounded=0;orthogonalLoop=1;jettySize=auto;html=1;exitX=1;exitY=0.25;exitDx=0;exitDy=0;entryX=0;entryY=0.25;entryDx=0;entryDy=0;fontSize=1;strokeWidth=1;" edge="1" parent="1" source="Qi4VVK5ZeT5TlyYO9Yci-29" target="Qi4VVK5ZeT5TlyYO9Yci-23">
          <mxGeometry relative="1" as="geometry">
            <Array as="points">
              <mxPoint x="500" y="710" />
              <mxPoint x="500" y="705" />
            </Array>
          </mxGeometry>
        </mxCell>
        <mxCell id="Qi4VVK5ZeT5TlyYO9Yci-29" value="调用中软OA平台的接口，获取相应的详情信息及附件信息" style="rounded=0;whiteSpace=wrap;html=1;" vertex="1" parent="1">
          <mxGeometry x="320" y="680" width="120" height="120" as="geometry" />
        </mxCell>
        <mxCell id="Qi4VVK5ZeT5TlyYO9Yci-38" value="" style="edgeStyle=orthogonalEdgeStyle;rounded=0;orthogonalLoop=1;jettySize=auto;html=1;fontSize=1;strokeWidth=1;" edge="1" parent="1" source="Qi4VVK5ZeT5TlyYO9Yci-30" target="Qi4VVK5ZeT5TlyYO9Yci-37">
          <mxGeometry relative="1" as="geometry" />
        </mxCell>
        <mxCell id="Qi4VVK5ZeT5TlyYO9Yci-30" value="中软OA平台待办箱&lt;br&gt;文、会、事待办列表" style="rounded=0;whiteSpace=wrap;html=1;" vertex="1" parent="1">
          <mxGeometry x="120" y="640" width="120" height="40" as="geometry" />
        </mxCell>
        <mxCell id="Qi4VVK5ZeT5TlyYO9Yci-31" value="" style="endArrow=none;dashed=1;html=1;strokeWidth=5;fillColor=#f5f5f5;strokeColor=#666666;" edge="1" parent="1">
          <mxGeometry width="50" height="50" relative="1" as="geometry">
            <mxPoint x="280" y="920" as="sourcePoint" />
            <mxPoint x="280" y="580" as="targetPoint" />
          </mxGeometry>
        </mxCell>
        <mxCell id="Qi4VVK5ZeT5TlyYO9Yci-32" value="" style="endArrow=none;dashed=1;html=1;strokeWidth=5;fillColor=#f5f5f5;strokeColor=#666666;" edge="1" parent="1">
          <mxGeometry width="50" height="50" relative="1" as="geometry">
            <mxPoint x="480" y="920" as="sourcePoint" />
            <mxPoint x="480" y="580" as="targetPoint" />
          </mxGeometry>
        </mxCell>
        <mxCell id="Qi4VVK5ZeT5TlyYO9Yci-33" value="新区多规合一平台" style="text;html=1;strokeColor=none;fillColor=none;align=center;verticalAlign=middle;whiteSpace=wrap;rounded=0;fontSize=18;fontStyle=1" vertex="1" parent="1">
          <mxGeometry x="105" y="600" width="150" height="20" as="geometry" />
        </mxCell>
        <mxCell id="Qi4VVK5ZeT5TlyYO9Yci-34" value="中软OA平台" style="text;html=1;strokeColor=none;fillColor=none;align=center;verticalAlign=middle;whiteSpace=wrap;rounded=0;fontSize=18;fontStyle=1" vertex="1" parent="1">
          <mxGeometry x="505" y="600" width="150" height="20" as="geometry" />
        </mxCell>
        <mxCell id="Qi4VVK5ZeT5TlyYO9Yci-35" value="发送请求，同步事项的详细信息" style="text;html=1;strokeColor=none;fillColor=none;align=center;verticalAlign=middle;whiteSpace=wrap;rounded=0;fontSize=20;fontStyle=1" vertex="1" parent="1">
          <mxGeometry x="80" y="520" width="600" height="60" as="geometry" />
        </mxCell>
        <mxCell id="Qi4VVK5ZeT5TlyYO9Yci-39" style="edgeStyle=orthogonalEdgeStyle;rounded=0;orthogonalLoop=1;jettySize=auto;html=1;exitX=1;exitY=0.5;exitDx=0;exitDy=0;entryX=0;entryY=0.25;entryDx=0;entryDy=0;fontSize=1;strokeWidth=1;" edge="1" parent="1" source="Qi4VVK5ZeT5TlyYO9Yci-37" target="Qi4VVK5ZeT5TlyYO9Yci-29">
          <mxGeometry relative="1" as="geometry">
            <Array as="points">
              <mxPoint x="260" y="750" />
              <mxPoint x="260" y="710" />
            </Array>
          </mxGeometry>
        </mxCell>
        <mxCell id="Qi4VVK5ZeT5TlyYO9Yci-43" value="" style="edgeStyle=orthogonalEdgeStyle;rounded=0;orthogonalLoop=1;jettySize=auto;html=1;fontSize=1;strokeWidth=1;" edge="1" parent="1" source="Qi4VVK5ZeT5TlyYO9Yci-37" target="Qi4VVK5ZeT5TlyYO9Yci-42">
          <mxGeometry relative="1" as="geometry" />
        </mxCell>
        <mxCell id="Qi4VVK5ZeT5TlyYO9Yci-37" value="用户点击【同步】按钮时，从待办列表中获取需同步的文、会、事的请求参数" style="rounded=0;whiteSpace=wrap;html=1;" vertex="1" parent="1">
          <mxGeometry x="120" y="710" width="120" height="80" as="geometry" />
        </mxCell>
        <mxCell id="Qi4VVK5ZeT5TlyYO9Yci-46" style="edgeStyle=orthogonalEdgeStyle;rounded=0;orthogonalLoop=1;jettySize=auto;html=1;exitX=1;exitY=0.5;exitDx=0;exitDy=0;fontSize=12;strokeWidth=2;dashed=1;startArrow=classic;startFill=1;fillColor=#f5f5f5;strokeColor=#666666;" edge="1" parent="1" source="Qi4VVK5ZeT5TlyYO9Yci-42" target="Qi4VVK5ZeT5TlyYO9Yci-23">
          <mxGeometry relative="1" as="geometry">
            <Array as="points">
              <mxPoint x="380" y="860" />
              <mxPoint x="380" y="860" />
            </Array>
          </mxGeometry>
        </mxCell>
        <mxCell id="Qi4VVK5ZeT5TlyYO9Yci-47" value="建立事项之间的关联" style="edgeLabel;html=1;align=center;verticalAlign=middle;resizable=0;points=[];fontSize=12;fontStyle=1" vertex="1" connectable="0" parent="Qi4VVK5ZeT5TlyYO9Yci-46">
          <mxGeometry x="0.047" y="-1" relative="1" as="geometry">
            <mxPoint x="-7" y="-1" as="offset" />
          </mxGeometry>
        </mxCell>
        <mxCell id="Qi4VVK5ZeT5TlyYO9Yci-42" value="在新区多规合一平台中新建相应的事项，并同步中软OA系统中的详情信息，同时建立事项的关联" style="rounded=0;whiteSpace=wrap;html=1;" vertex="1" parent="1">
          <mxGeometry x="120" y="820" width="120" height="80" as="geometry" />
        </mxCell>
      </root>
    </mxGraphModel>
  </diagram>
</mxfile>
